<svg width="304" height="304" viewBox="0 0 304 304" fill="none" xmlns="http://www.w3.org/2000/svg">
<mask id="path-1-outside-1_309_2" maskUnits="userSpaceOnUse" x="17" y="0" width="287" height="304" fill="black">
<rect fill="white" x="17" width="287" height="304"/>
<path d="M152 2C178.464 2 204.456 9.00119 227.34 22.293C250.223 35.5848 269.183 54.694 282.295 77.6812C295.406 100.668 302.203 126.715 301.995 153.178C301.788 179.641 294.582 205.578 281.111 228.356C267.64 251.135 248.383 269.944 225.293 282.874C202.204 295.805 176.104 302.397 149.644 301.981C123.184 301.566 97.304 294.157 74.6321 280.508C51.9602 266.858 33.303 247.453 20.554 224.263L152 152L152 2Z"/>
</mask>
<path d="M152 2C178.464 2 204.456 9.00119 227.34 22.293C250.223 35.5848 269.183 54.694 282.295 77.6812C295.406 100.668 302.203 126.715 301.995 153.178C301.788 179.641 294.582 205.578 281.111 228.356C267.64 251.135 248.383 269.944 225.293 282.874C202.204 295.805 176.104 302.397 149.644 301.981C123.184 301.566 97.304 294.157 74.6321 280.508C51.9602 266.858 33.303 247.453 20.554 224.263L152 152L152 2Z" fill="#2E86DE"/>
<path d="M152 2C178.464 2 204.456 9.00119 227.34 22.293C250.223 35.5848 269.183 54.694 282.295 77.6812C295.406 100.668 302.203 126.715 301.995 153.178C301.788 179.641 294.582 205.578 281.111 228.356C267.64 251.135 248.383 269.944 225.293 282.874C202.204 295.805 176.104 302.397 149.644 301.981C123.184 301.566 97.304 294.157 74.6321 280.508C51.9602 266.858 33.303 247.453 20.554 224.263L152 152L152 2Z" stroke="#C2C2C2" stroke-width="4" mask="url(#path-1-outside-1_309_2)"/>
<mask id="path-2-outside-2_309_2" maskUnits="userSpaceOnUse" x="0" y="0" width="154" height="227" fill="black">
<rect fill="white" width="154" height="227"/>
<path d="M20.554 224.263C7.99747 201.423 1.60911 175.705 2.0185 149.644C2.4279 123.583 9.62093 98.0784 22.8887 75.6438C36.1565 53.2092 55.041 34.619 77.6812 21.7053C100.321 8.79154 125.936 2 152 2L152 152L20.554 224.263Z"/>
</mask>
<path d="M20.554 224.263C7.99747 201.423 1.60911 175.705 2.0185 149.644C2.4279 123.583 9.62093 98.0784 22.8887 75.6438C36.1565 53.2092 55.041 34.619 77.6812 21.7053C100.321 8.79154 125.936 2 152 2L152 152L20.554 224.263Z" fill="#54A0FF"/>
<path d="M20.554 224.263C7.99747 201.423 1.60911 175.705 2.0185 149.644C2.4279 123.583 9.62093 98.0784 22.8887 75.6438C36.1565 53.2092 55.041 34.619 77.6812 21.7053C100.321 8.79154 125.936 2 152 2L152 152L20.554 224.263Z" stroke="#C2C2C2" stroke-width="4" mask="url(#path-2-outside-2_309_2)"/>
<path d="M196.396 201.814H194.615L194.627 200.894H196.396C197.006 200.894 197.514 200.767 197.92 200.513C198.326 200.255 198.631 199.896 198.834 199.435C199.041 198.97 199.145 198.427 199.145 197.806V197.284C199.145 196.796 199.086 196.363 198.969 195.984C198.852 195.601 198.68 195.279 198.453 195.017C198.227 194.751 197.949 194.55 197.621 194.413C197.297 194.277 196.924 194.208 196.502 194.208H194.58V193.282H196.502C197.061 193.282 197.57 193.376 198.031 193.564C198.492 193.747 198.889 194.015 199.221 194.366C199.557 194.714 199.814 195.136 199.994 195.632C200.174 196.124 200.264 196.679 200.264 197.296V197.806C200.264 198.423 200.174 198.98 199.994 199.476C199.814 199.968 199.555 200.388 199.215 200.736C198.879 201.083 198.473 201.351 197.996 201.538C197.523 201.722 196.99 201.814 196.396 201.814ZM195.219 193.282V201.814H194.088V193.282H195.219ZM204.992 194.038L202.168 201.814H201.014L204.266 193.282H205.01L204.992 194.038ZM207.359 201.814L204.529 194.038L204.512 193.282H205.256L208.52 201.814H207.359ZM207.213 198.656V199.581H202.42V198.656H207.213ZM216.16 197.279V197.818C216.16 198.458 216.08 199.032 215.92 199.54C215.76 200.048 215.529 200.48 215.229 200.835C214.928 201.191 214.566 201.462 214.145 201.65C213.727 201.837 213.258 201.931 212.738 201.931C212.234 201.931 211.771 201.837 211.35 201.65C210.932 201.462 210.568 201.191 210.26 200.835C209.955 200.48 209.719 200.048 209.551 199.54C209.383 199.032 209.299 198.458 209.299 197.818V197.279C209.299 196.638 209.381 196.066 209.545 195.562C209.713 195.054 209.949 194.622 210.254 194.267C210.559 193.907 210.92 193.634 211.338 193.447C211.76 193.259 212.223 193.165 212.727 193.165C213.246 193.165 213.715 193.259 214.133 193.447C214.555 193.634 214.916 193.907 215.217 194.267C215.521 194.622 215.754 195.054 215.914 195.562C216.078 196.066 216.16 196.638 216.16 197.279ZM215.041 197.818V197.267C215.041 196.759 214.988 196.31 214.883 195.919C214.781 195.529 214.631 195.2 214.432 194.935C214.232 194.669 213.988 194.468 213.699 194.331C213.414 194.195 213.09 194.126 212.727 194.126C212.375 194.126 212.057 194.195 211.771 194.331C211.49 194.468 211.248 194.669 211.045 194.935C210.846 195.2 210.691 195.529 210.582 195.919C210.473 196.31 210.418 196.759 210.418 197.267V197.818C210.418 198.329 210.473 198.782 210.582 199.177C210.691 199.568 210.848 199.898 211.051 200.167C211.258 200.433 211.502 200.634 211.783 200.771C212.068 200.907 212.387 200.976 212.738 200.976C213.105 200.976 213.432 200.907 213.717 200.771C214.002 200.634 214.242 200.433 214.438 200.167C214.637 199.898 214.787 199.568 214.889 199.177C214.99 198.782 215.041 198.329 215.041 197.818ZM223.748 193.282V201.814H222.635V193.282H223.748ZM226.49 193.282V194.208H219.898V193.282H226.49ZM228.23 196.47V201.814H227.146V195.474H228.201L228.23 196.47ZM230.211 195.439L230.205 196.447C230.115 196.427 230.029 196.415 229.947 196.411C229.869 196.404 229.779 196.4 229.678 196.4C229.428 196.4 229.207 196.439 229.016 196.517C228.824 196.595 228.662 196.704 228.529 196.845C228.396 196.986 228.291 197.154 228.213 197.349C228.139 197.54 228.09 197.751 228.066 197.982L227.762 198.157C227.762 197.775 227.799 197.415 227.873 197.079C227.951 196.743 228.07 196.447 228.23 196.189C228.391 195.927 228.594 195.724 228.84 195.579C229.09 195.431 229.387 195.357 229.73 195.357C229.809 195.357 229.898 195.366 230 195.386C230.102 195.402 230.172 195.419 230.211 195.439ZM233.727 201.931C233.285 201.931 232.885 201.857 232.525 201.708C232.17 201.556 231.863 201.343 231.605 201.07C231.352 200.796 231.156 200.472 231.02 200.097C230.883 199.722 230.814 199.312 230.814 198.866V198.62C230.814 198.105 230.891 197.646 231.043 197.243C231.195 196.837 231.402 196.493 231.664 196.212C231.926 195.931 232.223 195.718 232.555 195.573C232.887 195.429 233.23 195.357 233.586 195.357C234.039 195.357 234.43 195.435 234.758 195.591C235.09 195.747 235.361 195.966 235.572 196.247C235.783 196.525 235.939 196.853 236.041 197.232C236.143 197.607 236.193 198.017 236.193 198.462V198.948H231.459V198.064H235.109V197.982C235.094 197.7 235.035 197.427 234.934 197.161C234.836 196.896 234.68 196.677 234.465 196.505C234.25 196.333 233.957 196.247 233.586 196.247C233.34 196.247 233.113 196.3 232.906 196.406C232.699 196.507 232.521 196.659 232.373 196.863C232.225 197.066 232.109 197.314 232.027 197.607C231.945 197.9 231.904 198.238 231.904 198.62V198.866C231.904 199.167 231.945 199.45 232.027 199.716C232.113 199.978 232.236 200.208 232.396 200.407C232.561 200.607 232.758 200.763 232.988 200.876C233.223 200.99 233.488 201.046 233.785 201.046C234.168 201.046 234.492 200.968 234.758 200.812C235.023 200.656 235.256 200.447 235.455 200.185L236.111 200.706C235.975 200.913 235.801 201.111 235.59 201.298C235.379 201.486 235.119 201.638 234.811 201.755C234.506 201.872 234.145 201.931 233.727 201.931ZM241.197 200.73V197.466C241.197 197.216 241.146 196.999 241.045 196.816C240.947 196.628 240.799 196.484 240.6 196.382C240.4 196.281 240.154 196.23 239.861 196.23C239.588 196.23 239.348 196.277 239.141 196.37C238.938 196.464 238.777 196.587 238.66 196.74C238.547 196.892 238.49 197.056 238.49 197.232H237.406C237.406 197.005 237.465 196.781 237.582 196.558C237.699 196.335 237.867 196.134 238.086 195.954C238.309 195.771 238.574 195.626 238.883 195.521C239.195 195.411 239.543 195.357 239.926 195.357C240.387 195.357 240.793 195.435 241.145 195.591C241.5 195.747 241.777 195.984 241.977 196.3C242.18 196.613 242.281 197.005 242.281 197.478V200.431C242.281 200.642 242.299 200.866 242.334 201.105C242.373 201.343 242.43 201.548 242.504 201.72V201.814H241.373C241.318 201.689 241.275 201.523 241.244 201.316C241.213 201.105 241.197 200.909 241.197 200.73ZM241.385 197.97L241.396 198.732H240.301C239.992 198.732 239.717 198.757 239.475 198.808C239.232 198.855 239.029 198.927 238.865 199.025C238.701 199.122 238.576 199.245 238.49 199.394C238.404 199.538 238.361 199.708 238.361 199.904C238.361 200.103 238.406 200.284 238.496 200.448C238.586 200.613 238.721 200.743 238.9 200.841C239.084 200.935 239.309 200.982 239.574 200.982C239.906 200.982 240.199 200.911 240.453 200.771C240.707 200.63 240.908 200.458 241.057 200.255C241.209 200.052 241.291 199.855 241.303 199.663L241.766 200.185C241.738 200.349 241.664 200.531 241.543 200.73C241.422 200.929 241.26 201.12 241.057 201.304C240.857 201.484 240.619 201.634 240.342 201.755C240.068 201.872 239.76 201.931 239.416 201.931C238.986 201.931 238.609 201.847 238.285 201.679C237.965 201.511 237.715 201.286 237.535 201.005C237.359 200.72 237.271 200.402 237.271 200.05C237.271 199.71 237.338 199.411 237.471 199.154C237.604 198.892 237.795 198.675 238.045 198.503C238.295 198.327 238.596 198.195 238.947 198.105C239.299 198.015 239.691 197.97 240.125 197.97H241.385ZM247.678 200.132C247.678 199.976 247.643 199.831 247.572 199.698C247.506 199.562 247.367 199.439 247.156 199.329C246.949 199.216 246.637 199.118 246.219 199.036C245.867 198.962 245.549 198.874 245.264 198.773C244.982 198.671 244.742 198.548 244.543 198.404C244.348 198.259 244.197 198.089 244.092 197.894C243.986 197.698 243.934 197.47 243.934 197.208C243.934 196.958 243.988 196.722 244.098 196.499C244.211 196.277 244.369 196.079 244.572 195.907C244.779 195.736 245.027 195.601 245.316 195.503C245.605 195.406 245.928 195.357 246.283 195.357C246.791 195.357 247.225 195.447 247.584 195.626C247.943 195.806 248.219 196.046 248.41 196.347C248.602 196.644 248.697 196.974 248.697 197.337H247.613C247.613 197.161 247.561 196.991 247.455 196.827C247.354 196.659 247.203 196.521 247.004 196.411C246.809 196.302 246.568 196.247 246.283 196.247C245.982 196.247 245.738 196.294 245.551 196.388C245.367 196.478 245.232 196.593 245.146 196.734C245.064 196.874 245.023 197.023 245.023 197.179C245.023 197.296 245.043 197.402 245.082 197.495C245.125 197.585 245.199 197.669 245.305 197.747C245.41 197.822 245.559 197.892 245.75 197.958C245.941 198.025 246.186 198.091 246.482 198.157C247.002 198.275 247.43 198.415 247.766 198.579C248.102 198.743 248.352 198.945 248.516 199.183C248.68 199.421 248.762 199.71 248.762 200.05C248.762 200.327 248.703 200.581 248.586 200.812C248.473 201.042 248.307 201.241 248.088 201.409C247.873 201.573 247.615 201.702 247.314 201.796C247.018 201.886 246.684 201.931 246.312 201.931C245.754 201.931 245.281 201.831 244.895 201.632C244.508 201.433 244.215 201.175 244.016 200.859C243.816 200.542 243.717 200.208 243.717 199.857H244.807C244.822 200.154 244.908 200.39 245.064 200.566C245.221 200.738 245.412 200.861 245.639 200.935C245.865 201.005 246.09 201.04 246.312 201.04C246.609 201.04 246.857 201.001 247.057 200.923C247.26 200.845 247.414 200.738 247.52 200.601C247.625 200.464 247.678 200.308 247.678 200.132ZM254.064 200.349V195.474H255.154V201.814H254.117L254.064 200.349ZM254.27 199.013L254.721 199.001C254.721 199.423 254.676 199.814 254.586 200.173C254.5 200.529 254.359 200.837 254.164 201.099C253.969 201.361 253.713 201.566 253.396 201.714C253.08 201.859 252.695 201.931 252.242 201.931C251.934 201.931 251.65 201.886 251.393 201.796C251.139 201.706 250.92 201.568 250.736 201.38C250.553 201.193 250.41 200.948 250.309 200.648C250.211 200.347 250.162 199.986 250.162 199.564V195.474H251.246V199.575C251.246 199.861 251.277 200.097 251.34 200.284C251.406 200.468 251.494 200.615 251.604 200.724C251.717 200.829 251.842 200.904 251.979 200.947C252.119 200.99 252.264 201.011 252.412 201.011C252.873 201.011 253.238 200.923 253.508 200.747C253.777 200.568 253.971 200.327 254.088 200.027C254.209 199.722 254.27 199.384 254.27 199.013ZM257.891 196.47V201.814H256.807V195.474H257.861L257.891 196.47ZM259.871 195.439L259.865 196.447C259.775 196.427 259.689 196.415 259.607 196.411C259.529 196.404 259.439 196.4 259.338 196.4C259.088 196.4 258.867 196.439 258.676 196.517C258.484 196.595 258.322 196.704 258.189 196.845C258.057 196.986 257.951 197.154 257.873 197.349C257.799 197.54 257.75 197.751 257.727 197.982L257.422 198.157C257.422 197.775 257.459 197.415 257.533 197.079C257.611 196.743 257.73 196.447 257.891 196.189C258.051 195.927 258.254 195.724 258.5 195.579C258.75 195.431 259.047 195.357 259.391 195.357C259.469 195.357 259.559 195.366 259.66 195.386C259.762 195.402 259.832 195.419 259.871 195.439ZM262.76 201.157L264.523 195.474H265.684L263.141 202.792C263.082 202.948 263.004 203.116 262.906 203.296C262.812 203.48 262.691 203.654 262.543 203.818C262.395 203.982 262.215 204.115 262.004 204.216C261.797 204.322 261.549 204.374 261.26 204.374C261.174 204.374 261.064 204.363 260.932 204.339C260.799 204.316 260.705 204.296 260.65 204.281L260.645 203.402C260.676 203.406 260.725 203.409 260.791 203.413C260.861 203.421 260.91 203.425 260.938 203.425C261.184 203.425 261.393 203.392 261.564 203.325C261.736 203.263 261.881 203.156 261.998 203.003C262.119 202.855 262.223 202.65 262.309 202.388L262.76 201.157ZM261.465 195.474L263.111 200.396L263.393 201.538L262.613 201.937L260.281 195.474H261.465Z" fill="white"/>
<path d="M41.1582 106.841H38.8789V105.921H41.1582C41.5996 105.921 41.957 105.85 42.2305 105.71C42.5039 105.569 42.7031 105.374 42.8281 105.124C42.957 104.874 43.0215 104.589 43.0215 104.268C43.0215 103.975 42.957 103.7 42.8281 103.442C42.7031 103.184 42.5039 102.977 42.2305 102.821C41.957 102.661 41.5996 102.581 41.1582 102.581H39.1426V110.186H38.0117V101.655H41.1582C41.8027 101.655 42.3477 101.766 42.793 101.989C43.2383 102.212 43.5762 102.52 43.8066 102.915C44.0371 103.305 44.1523 103.753 44.1523 104.257C44.1523 104.803 44.0371 105.27 43.8066 105.657C43.5762 106.044 43.2383 106.339 42.793 106.542C42.3477 106.741 41.8027 106.841 41.1582 106.841ZM49.2969 108.721V103.846H50.3867V110.186H49.3496L49.2969 108.721ZM49.502 107.385L49.9531 107.374C49.9531 107.796 49.9082 108.186 49.8184 108.546C49.7324 108.901 49.5918 109.21 49.3965 109.471C49.2012 109.733 48.9453 109.938 48.6289 110.087C48.3125 110.231 47.9277 110.303 47.4746 110.303C47.166 110.303 46.8828 110.259 46.625 110.169C46.3711 110.079 46.1523 109.94 45.9688 109.753C45.7852 109.565 45.6426 109.321 45.541 109.02C45.4434 108.719 45.3945 108.358 45.3945 107.936V103.846H46.4785V107.948C46.4785 108.233 46.5098 108.469 46.5723 108.657C46.6387 108.841 46.7266 108.987 46.8359 109.096C46.9492 109.202 47.0742 109.276 47.2109 109.319C47.3516 109.362 47.4961 109.384 47.6445 109.384C48.1055 109.384 48.4707 109.296 48.7402 109.12C49.0098 108.94 49.2031 108.7 49.3203 108.399C49.4414 108.094 49.502 107.757 49.502 107.385ZM52.0332 101.186H53.123V108.956L53.0293 110.186H52.0332V101.186ZM57.4062 106.964V107.087C57.4062 107.548 57.3516 107.975 57.2422 108.37C57.1328 108.76 56.9727 109.1 56.7617 109.389C56.5508 109.678 56.293 109.903 55.9883 110.063C55.6836 110.223 55.334 110.303 54.9395 110.303C54.5371 110.303 54.1836 110.235 53.8789 110.098C53.5781 109.958 53.3242 109.757 53.1172 109.495C52.9102 109.233 52.7441 108.917 52.6191 108.546C52.498 108.175 52.4141 107.757 52.3672 107.292V106.753C52.4141 106.284 52.498 105.864 52.6191 105.493C52.7441 105.122 52.9102 104.805 53.1172 104.544C53.3242 104.278 53.5781 104.077 53.8789 103.94C54.1797 103.8 54.5293 103.729 54.9277 103.729C55.3262 103.729 55.6797 103.807 55.9883 103.964C56.2969 104.116 56.5547 104.335 56.7617 104.62C56.9727 104.905 57.1328 105.247 57.2422 105.645C57.3516 106.04 57.4062 106.479 57.4062 106.964ZM56.3164 107.087V106.964C56.3164 106.647 56.2871 106.35 56.2285 106.073C56.1699 105.792 56.0762 105.546 55.9473 105.335C55.8184 105.12 55.6484 104.952 55.4375 104.831C55.2266 104.706 54.9668 104.643 54.6582 104.643C54.3848 104.643 54.1465 104.69 53.9434 104.784C53.7441 104.878 53.5742 105.005 53.4336 105.165C53.293 105.321 53.1777 105.501 53.0879 105.704C53.002 105.903 52.9375 106.11 52.8945 106.325V107.737C52.957 108.01 53.0586 108.274 53.1992 108.528C53.3438 108.778 53.5352 108.983 53.7734 109.143C54.0156 109.303 54.3145 109.384 54.6699 109.384C54.9629 109.384 55.2129 109.325 55.4199 109.208C55.6309 109.087 55.8008 108.921 55.9297 108.71C56.0625 108.499 56.1602 108.255 56.2227 107.977C56.2852 107.7 56.3164 107.403 56.3164 107.087ZM59.9551 101.186V110.186H58.8652V101.186H59.9551ZM62.873 103.846V110.186H61.7832V103.846H62.873ZM61.7012 102.165C61.7012 101.989 61.7539 101.841 61.8594 101.719C61.9688 101.598 62.1289 101.538 62.3398 101.538C62.5469 101.538 62.7051 101.598 62.8145 101.719C62.9277 101.841 62.9844 101.989 62.9844 102.165C62.9844 102.333 62.9277 102.477 62.8145 102.598C62.7051 102.716 62.5469 102.774 62.3398 102.774C62.1289 102.774 61.9688 102.716 61.8594 102.598C61.7539 102.477 61.7012 102.333 61.7012 102.165ZM67.1504 109.413C67.4082 109.413 67.6465 109.36 67.8652 109.255C68.084 109.149 68.2637 109.005 68.4043 108.821C68.5449 108.634 68.625 108.421 68.6445 108.182H69.6758C69.6562 108.557 69.5293 108.907 69.2949 109.231C69.0645 109.552 68.7617 109.811 68.3867 110.01C68.0117 110.206 67.5996 110.303 67.1504 110.303C66.6738 110.303 66.2578 110.219 65.9023 110.052C65.5508 109.884 65.2578 109.653 65.0234 109.36C64.793 109.067 64.6191 108.731 64.502 108.352C64.3887 107.969 64.332 107.565 64.332 107.139V106.893C64.332 106.468 64.3887 106.065 64.502 105.686C64.6191 105.303 64.793 104.966 65.0234 104.673C65.2578 104.38 65.5508 104.149 65.9023 103.981C66.2578 103.813 66.6738 103.729 67.1504 103.729C67.6465 103.729 68.0801 103.831 68.4512 104.034C68.8223 104.233 69.1133 104.507 69.3242 104.854C69.5391 105.198 69.6562 105.589 69.6758 106.026H68.6445C68.625 105.764 68.5508 105.528 68.4219 105.317C68.2969 105.106 68.125 104.938 67.9062 104.813C67.6914 104.684 67.4395 104.62 67.1504 104.62C66.8184 104.62 66.5391 104.686 66.3125 104.819C66.0898 104.948 65.9121 105.124 65.7793 105.346C65.6504 105.565 65.5566 105.809 65.498 106.079C65.4434 106.344 65.416 106.616 65.416 106.893V107.139C65.416 107.417 65.4434 107.69 65.498 107.96C65.5527 108.229 65.6445 108.473 65.7734 108.692C65.9062 108.911 66.084 109.087 66.3066 109.219C66.5332 109.348 66.8145 109.413 67.1504 109.413ZM77.1934 102.411L74.3691 110.186H73.2148L76.4668 101.655H77.2109L77.1934 102.411ZM79.5605 110.186L76.7305 102.411L76.7129 101.655H77.457L80.7207 110.186H79.5605ZM79.4141 107.028V107.954H74.6211V107.028H79.4141ZM82.877 103.846V110.186H81.7871V103.846H82.877ZM81.7051 102.165C81.7051 101.989 81.7578 101.841 81.8633 101.719C81.9727 101.598 82.1328 101.538 82.3438 101.538C82.5508 101.538 82.709 101.598 82.8184 101.719C82.9316 101.841 82.9883 101.989 82.9883 102.165C82.9883 102.333 82.9316 102.477 82.8184 102.598C82.709 102.716 82.5508 102.774 82.3438 102.774C82.1328 102.774 81.9727 102.716 81.8633 102.598C81.7578 102.477 81.7051 102.333 81.7051 102.165ZM85.7012 104.843V110.186H84.6172V103.846H85.6719L85.7012 104.843ZM87.6816 103.811L87.6758 104.819C87.5859 104.8 87.5 104.788 87.418 104.784C87.3398 104.776 87.25 104.772 87.1484 104.772C86.8984 104.772 86.6777 104.811 86.4863 104.889C86.2949 104.968 86.1328 105.077 86 105.218C85.8672 105.358 85.7617 105.526 85.6836 105.721C85.6094 105.913 85.5605 106.124 85.5371 106.354L85.2324 106.53C85.2324 106.147 85.2695 105.788 85.3438 105.452C85.4219 105.116 85.541 104.819 85.7012 104.561C85.8613 104.3 86.0645 104.096 86.3105 103.952C86.5605 103.803 86.8574 103.729 87.2012 103.729C87.2793 103.729 87.3691 103.739 87.4707 103.759C87.5723 103.774 87.6426 103.792 87.6816 103.811ZM92.5625 108.956V101.186H93.6523V110.186H92.6562L92.5625 108.956ZM88.2969 107.087V106.964C88.2969 106.479 88.3555 106.04 88.4727 105.645C88.5938 105.247 88.7637 104.905 88.9824 104.62C89.2051 104.335 89.4688 104.116 89.7734 103.964C90.082 103.807 90.4258 103.729 90.8047 103.729C91.2031 103.729 91.5508 103.8 91.8477 103.94C92.1484 104.077 92.4023 104.278 92.6094 104.544C92.8203 104.805 92.9863 105.122 93.1074 105.493C93.2285 105.864 93.3125 106.284 93.3594 106.753V107.292C93.3164 107.757 93.2324 108.175 93.1074 108.546C92.9863 108.917 92.8203 109.233 92.6094 109.495C92.4023 109.757 92.1484 109.958 91.8477 110.098C91.5469 110.235 91.1953 110.303 90.793 110.303C90.4219 110.303 90.082 110.223 89.7734 110.063C89.4688 109.903 89.2051 109.678 88.9824 109.389C88.7637 109.1 88.5938 108.76 88.4727 108.37C88.3555 107.975 88.2969 107.548 88.2969 107.087ZM89.3867 106.964V107.087C89.3867 107.403 89.418 107.7 89.4805 107.977C89.5469 108.255 89.6484 108.499 89.7852 108.71C89.9219 108.921 90.0957 109.087 90.3066 109.208C90.5176 109.325 90.7695 109.384 91.0625 109.384C91.4219 109.384 91.7168 109.307 91.9473 109.155C92.1816 109.003 92.3691 108.802 92.5098 108.552C92.6504 108.302 92.7598 108.03 92.8379 107.737V106.325C92.791 106.11 92.7227 105.903 92.6328 105.704C92.5469 105.501 92.4336 105.321 92.293 105.165C92.1562 105.005 91.9863 104.878 91.7832 104.784C91.584 104.69 91.3477 104.643 91.0742 104.643C90.7773 104.643 90.5215 104.706 90.3066 104.831C90.0957 104.952 89.9219 105.12 89.7852 105.335C89.6484 105.546 89.5469 105.792 89.4805 106.073C89.418 106.35 89.3867 106.647 89.3867 106.964ZM96.4238 104.843V110.186H95.3398V103.846H96.3945L96.4238 104.843ZM98.4043 103.811L98.3984 104.819C98.3086 104.8 98.2227 104.788 98.1406 104.784C98.0625 104.776 97.9727 104.772 97.8711 104.772C97.6211 104.772 97.4004 104.811 97.209 104.889C97.0176 104.968 96.8555 105.077 96.7227 105.218C96.5898 105.358 96.4844 105.526 96.4062 105.721C96.332 105.913 96.2832 106.124 96.2598 106.354L95.9551 106.53C95.9551 106.147 95.9922 105.788 96.0664 105.452C96.1445 105.116 96.2637 104.819 96.4238 104.561C96.584 104.3 96.7871 104.096 97.0332 103.952C97.2832 103.803 97.5801 103.729 97.9238 103.729C98.002 103.729 98.0918 103.739 98.1934 103.759C98.2949 103.774 98.3652 103.792 98.4043 103.811ZM99.002 107.087V106.952C99.002 106.495 99.0684 106.071 99.2012 105.68C99.334 105.286 99.5254 104.944 99.7754 104.655C100.025 104.362 100.328 104.135 100.684 103.975C101.039 103.811 101.438 103.729 101.879 103.729C102.324 103.729 102.725 103.811 103.08 103.975C103.439 104.135 103.744 104.362 103.994 104.655C104.248 104.944 104.441 105.286 104.574 105.68C104.707 106.071 104.773 106.495 104.773 106.952V107.087C104.773 107.544 104.707 107.968 104.574 108.358C104.441 108.749 104.248 109.091 103.994 109.384C103.744 109.673 103.441 109.899 103.086 110.063C102.734 110.223 102.336 110.303 101.891 110.303C101.445 110.303 101.045 110.223 100.689 110.063C100.334 109.899 100.029 109.673 99.7754 109.384C99.5254 109.091 99.334 108.749 99.2012 108.358C99.0684 107.968 99.002 107.544 99.002 107.087ZM100.086 106.952V107.087C100.086 107.403 100.123 107.702 100.197 107.983C100.271 108.26 100.383 108.507 100.531 108.721C100.684 108.936 100.873 109.106 101.1 109.231C101.326 109.352 101.59 109.413 101.891 109.413C102.188 109.413 102.447 109.352 102.67 109.231C102.896 109.106 103.084 108.936 103.232 108.721C103.381 108.507 103.492 108.26 103.566 107.983C103.645 107.702 103.684 107.403 103.684 107.087V106.952C103.684 106.639 103.645 106.344 103.566 106.067C103.492 105.786 103.379 105.538 103.227 105.323C103.078 105.104 102.891 104.932 102.664 104.807C102.441 104.682 102.18 104.62 101.879 104.62C101.582 104.62 101.32 104.682 101.094 104.807C100.871 104.932 100.684 105.104 100.531 105.323C100.383 105.538 100.271 105.786 100.197 106.067C100.123 106.344 100.086 106.639 100.086 106.952ZM107.217 105.065V112.624H106.127V103.846H107.123L107.217 105.065ZM111.488 106.964V107.087C111.488 107.548 111.434 107.975 111.324 108.37C111.215 108.76 111.055 109.1 110.844 109.389C110.637 109.678 110.381 109.903 110.076 110.063C109.771 110.223 109.422 110.303 109.027 110.303C108.625 110.303 108.27 110.237 107.961 110.104C107.652 109.971 107.391 109.778 107.176 109.524C106.961 109.27 106.789 108.966 106.66 108.61C106.535 108.255 106.449 107.854 106.402 107.409V106.753C106.449 106.284 106.537 105.864 106.666 105.493C106.795 105.122 106.965 104.805 107.176 104.544C107.391 104.278 107.65 104.077 107.955 103.94C108.26 103.8 108.611 103.729 109.01 103.729C109.408 103.729 109.762 103.807 110.07 103.964C110.379 104.116 110.639 104.335 110.85 104.62C111.061 104.905 111.219 105.247 111.324 105.645C111.434 106.04 111.488 106.479 111.488 106.964ZM110.398 107.087V106.964C110.398 106.647 110.365 106.35 110.299 106.073C110.232 105.792 110.129 105.546 109.988 105.335C109.852 105.12 109.676 104.952 109.461 104.831C109.246 104.706 108.99 104.643 108.693 104.643C108.42 104.643 108.182 104.69 107.979 104.784C107.779 104.878 107.609 105.005 107.469 105.165C107.328 105.321 107.213 105.501 107.123 105.704C107.037 105.903 106.973 106.11 106.93 106.325V107.843C107.008 108.116 107.117 108.374 107.258 108.616C107.398 108.854 107.586 109.048 107.82 109.196C108.055 109.341 108.35 109.413 108.705 109.413C108.998 109.413 109.25 109.352 109.461 109.231C109.676 109.106 109.852 108.936 109.988 108.721C110.129 108.507 110.232 108.26 110.299 107.983C110.365 107.702 110.398 107.403 110.398 107.087Z" fill="white"/>
</svg>
