<svg width="385" height="314" viewBox="0 0 385 314" fill="none" xmlns="http://www.w3.org/2000/svg">
<mask id="path-1-inside-1_308_157" fill="white">
<path d="M150 14C181.677 14 212.541 24.0282 238.168 42.6474L150 164V14Z"/>
</mask>
<path d="M150 14C181.677 14 212.541 24.0282 238.168 42.6474L150 164V14Z" fill="#CCE3FF" stroke="#D4D4D4" stroke-width="4" mask="url(#path-1-inside-1_308_157)"/>
<mask id="path-2-inside-2_308_157" fill="white">
<path d="M238.168 42.6474C263.795 61.2667 282.87 87.5209 292.658 117.647L150 164L238.168 42.6474Z"/>
</mask>
<path d="M238.168 42.6474C263.795 61.2667 282.87 87.5209 292.658 117.647L150 164L238.168 42.6474Z" fill="#98C6FF" stroke="#D4D4D4" stroke-width="4" mask="url(#path-2-inside-2_308_157)"/>
<mask id="path-3-inside-3_308_157" fill="white">
<path d="M292.658 117.647C299.973 140.16 301.856 164.085 298.153 187.465C294.45 210.845 285.266 233.017 271.353 252.168L150 164L292.658 117.647Z"/>
</mask>
<path d="M292.658 117.647C299.973 140.16 301.856 164.085 298.153 187.465C294.45 210.845 285.266 233.017 271.353 252.168L150 164L292.658 117.647Z" fill="#54A0FF" stroke="#D4D4D4" stroke-width="4" mask="url(#path-3-inside-3_308_157)"/>
<mask id="path-4-inside-4_308_157" fill="white">
<path d="M271.353 252.168C256.267 272.931 236.106 289.477 212.799 300.221C189.492 310.966 163.817 315.551 138.231 313.538C112.645 311.524 88.0041 302.979 66.6645 288.72C45.3248 274.462 28.0007 254.966 16.349 232.099C4.69738 209.231 -0.891957 183.756 0.115645 158.111C1.12325 132.466 8.69408 107.508 22.104 85.6252C35.5139 63.7423 54.3143 45.666 76.7068 33.1256C99.0994 20.5852 124.335 14 150 14L150 164L271.353 252.168Z"/>
</mask>
<path d="M271.353 252.168C256.267 272.931 236.106 289.477 212.799 300.221C189.492 310.966 163.817 315.551 138.231 313.538C112.645 311.524 88.0041 302.979 66.6645 288.72C45.3248 274.462 28.0007 254.966 16.349 232.099C4.69738 209.231 -0.891957 183.756 0.115645 158.111C1.12325 132.466 8.69408 107.508 22.104 85.6252C35.5139 63.7423 54.3143 45.666 76.7068 33.1256C99.0994 20.5852 124.335 14 150 14L150 164L271.353 252.168Z" fill="#2E86DE" stroke="#D4D4D4" stroke-width="4" mask="url(#path-4-inside-4_308_157)"/>
<path d="M178.551 7.6543H176.271V6.73438H178.551C178.992 6.73438 179.35 6.66406 179.623 6.52344C179.896 6.38281 180.096 6.1875 180.221 5.9375C180.35 5.6875 180.414 5.40234 180.414 5.08203C180.414 4.78906 180.35 4.51367 180.221 4.25586C180.096 3.99805 179.896 3.79102 179.623 3.63477C179.35 3.47461 178.992 3.39453 178.551 3.39453H176.535V11H175.404V2.46875H178.551C179.195 2.46875 179.74 2.58008 180.186 2.80273C180.631 3.02539 180.969 3.33398 181.199 3.72852C181.43 4.11914 181.545 4.56641 181.545 5.07031C181.545 5.61719 181.43 6.08398 181.199 6.4707C180.969 6.85742 180.631 7.15234 180.186 7.35547C179.74 7.55469 179.195 7.6543 178.551 7.6543ZM183.895 5.65625V11H182.811V4.66016H183.865L183.895 5.65625ZM185.875 4.625L185.869 5.63281C185.779 5.61328 185.693 5.60156 185.611 5.59766C185.533 5.58984 185.443 5.58594 185.342 5.58594C185.092 5.58594 184.871 5.625 184.68 5.70312C184.488 5.78125 184.326 5.89062 184.193 6.03125C184.061 6.17188 183.955 6.33984 183.877 6.53516C183.803 6.72656 183.754 6.9375 183.73 7.16797L183.426 7.34375C183.426 6.96094 183.463 6.60156 183.537 6.26562C183.615 5.92969 183.734 5.63281 183.895 5.375C184.055 5.11328 184.258 4.91016 184.504 4.76562C184.754 4.61719 185.051 4.54297 185.395 4.54297C185.473 4.54297 185.562 4.55273 185.664 4.57227C185.766 4.58789 185.836 4.60547 185.875 4.625ZM186.473 7.90039V7.76562C186.473 7.30859 186.539 6.88477 186.672 6.49414C186.805 6.09961 186.996 5.75781 187.246 5.46875C187.496 5.17578 187.799 4.94922 188.154 4.78906C188.51 4.625 188.908 4.54297 189.35 4.54297C189.795 4.54297 190.195 4.625 190.551 4.78906C190.91 4.94922 191.215 5.17578 191.465 5.46875C191.719 5.75781 191.912 6.09961 192.045 6.49414C192.178 6.88477 192.244 7.30859 192.244 7.76562V7.90039C192.244 8.35742 192.178 8.78125 192.045 9.17188C191.912 9.5625 191.719 9.9043 191.465 10.1973C191.215 10.4863 190.912 10.7129 190.557 10.877C190.205 11.0371 189.807 11.1172 189.361 11.1172C188.916 11.1172 188.516 11.0371 188.16 10.877C187.805 10.7129 187.5 10.4863 187.246 10.1973C186.996 9.9043 186.805 9.5625 186.672 9.17188C186.539 8.78125 186.473 8.35742 186.473 7.90039ZM187.557 7.76562V7.90039C187.557 8.2168 187.594 8.51562 187.668 8.79688C187.742 9.07422 187.854 9.32031 188.002 9.53516C188.154 9.75 188.344 9.91992 188.57 10.0449C188.797 10.166 189.061 10.2266 189.361 10.2266C189.658 10.2266 189.918 10.166 190.141 10.0449C190.367 9.91992 190.555 9.75 190.703 9.53516C190.852 9.32031 190.963 9.07422 191.037 8.79688C191.115 8.51562 191.154 8.2168 191.154 7.90039V7.76562C191.154 7.45312 191.115 7.1582 191.037 6.88086C190.963 6.59961 190.85 6.35156 190.697 6.13672C190.549 5.91797 190.361 5.74609 190.135 5.62109C189.912 5.49609 189.65 5.43359 189.35 5.43359C189.053 5.43359 188.791 5.49609 188.564 5.62109C188.342 5.74609 188.154 5.91797 188.002 6.13672C187.854 6.35156 187.742 6.59961 187.668 6.88086C187.594 7.1582 187.557 7.45312 187.557 7.76562ZM197.6 9.76953V2H198.689V11H197.693L197.6 9.76953ZM193.334 7.90039V7.77734C193.334 7.29297 193.393 6.85352 193.51 6.45898C193.631 6.06055 193.801 5.71875 194.02 5.43359C194.242 5.14844 194.506 4.92969 194.811 4.77734C195.119 4.62109 195.463 4.54297 195.842 4.54297C196.24 4.54297 196.588 4.61328 196.885 4.75391C197.186 4.89062 197.439 5.0918 197.646 5.35742C197.857 5.61914 198.023 5.93555 198.145 6.30664C198.266 6.67773 198.35 7.09766 198.396 7.56641V8.10547C198.354 8.57031 198.27 8.98828 198.145 9.35938C198.023 9.73047 197.857 10.0469 197.646 10.3086C197.439 10.5703 197.186 10.7715 196.885 10.9121C196.584 11.0488 196.232 11.1172 195.83 11.1172C195.459 11.1172 195.119 11.0371 194.811 10.877C194.506 10.7168 194.242 10.4922 194.02 10.2031C193.801 9.91406 193.631 9.57422 193.51 9.18359C193.393 8.78906 193.334 8.36133 193.334 7.90039ZM194.424 7.77734V7.90039C194.424 8.2168 194.455 8.51367 194.518 8.79102C194.584 9.06836 194.686 9.3125 194.822 9.52344C194.959 9.73438 195.133 9.90039 195.344 10.0215C195.555 10.1387 195.807 10.1973 196.1 10.1973C196.459 10.1973 196.754 10.1211 196.984 9.96875C197.219 9.81641 197.406 9.61523 197.547 9.36523C197.688 9.11523 197.797 8.84375 197.875 8.55078V7.13867C197.828 6.92383 197.76 6.7168 197.67 6.51758C197.584 6.31445 197.471 6.13477 197.33 5.97852C197.193 5.81836 197.023 5.69141 196.82 5.59766C196.621 5.50391 196.385 5.45703 196.111 5.45703C195.814 5.45703 195.559 5.51953 195.344 5.64453C195.133 5.76562 194.959 5.93359 194.822 6.14844C194.686 6.35938 194.584 6.60547 194.518 6.88672C194.455 7.16406 194.424 7.46094 194.424 7.77734ZM204.256 9.53516V4.66016H205.346V11H204.309L204.256 9.53516ZM204.461 8.19922L204.912 8.1875C204.912 8.60938 204.867 9 204.777 9.35938C204.691 9.71484 204.551 10.0234 204.355 10.2852C204.16 10.5469 203.904 10.752 203.588 10.9004C203.271 11.0449 202.887 11.1172 202.434 11.1172C202.125 11.1172 201.842 11.0723 201.584 10.9824C201.33 10.8926 201.111 10.7539 200.928 10.5664C200.744 10.3789 200.602 10.1348 200.5 9.83398C200.402 9.5332 200.354 9.17188 200.354 8.75V4.66016H201.438V8.76172C201.438 9.04688 201.469 9.2832 201.531 9.4707C201.598 9.6543 201.686 9.80078 201.795 9.91016C201.908 10.0156 202.033 10.0898 202.17 10.1328C202.311 10.1758 202.455 10.1973 202.604 10.1973C203.064 10.1973 203.43 10.1094 203.699 9.93359C203.969 9.75391 204.162 9.51367 204.279 9.21289C204.4 8.9082 204.461 8.57031 204.461 8.19922ZM209.535 10.2266C209.793 10.2266 210.031 10.1738 210.25 10.0684C210.469 9.96289 210.648 9.81836 210.789 9.63477C210.93 9.44727 211.01 9.23438 211.029 8.99609H212.061C212.041 9.37109 211.914 9.7207 211.68 10.0449C211.449 10.3652 211.146 10.625 210.771 10.8242C210.396 11.0195 209.984 11.1172 209.535 11.1172C209.059 11.1172 208.643 11.0332 208.287 10.8652C207.936 10.6973 207.643 10.4668 207.408 10.1738C207.178 9.88086 207.004 9.54492 206.887 9.16602C206.773 8.7832 206.717 8.37891 206.717 7.95312V7.70703C206.717 7.28125 206.773 6.87891 206.887 6.5C207.004 6.11719 207.178 5.7793 207.408 5.48633C207.643 5.19336 207.936 4.96289 208.287 4.79492C208.643 4.62695 209.059 4.54297 209.535 4.54297C210.031 4.54297 210.465 4.64453 210.836 4.84766C211.207 5.04688 211.498 5.32031 211.709 5.66797C211.924 6.01172 212.041 6.40234 212.061 6.83984H211.029C211.01 6.57812 210.936 6.3418 210.807 6.13086C210.682 5.91992 210.51 5.75195 210.291 5.62695C210.076 5.49805 209.824 5.43359 209.535 5.43359C209.203 5.43359 208.924 5.5 208.697 5.63281C208.475 5.76172 208.297 5.9375 208.164 6.16016C208.035 6.37891 207.941 6.62305 207.883 6.89258C207.828 7.1582 207.801 7.42969 207.801 7.70703V7.95312C207.801 8.23047 207.828 8.50391 207.883 8.77344C207.938 9.04297 208.029 9.28711 208.158 9.50586C208.291 9.72461 208.469 9.90039 208.691 10.0332C208.918 10.1621 209.199 10.2266 209.535 10.2266ZM215.934 4.66016V5.49219H212.506V4.66016H215.934ZM213.666 3.11914H214.75V9.42969C214.75 9.64453 214.783 9.80664 214.85 9.91602C214.916 10.0254 215.002 10.0977 215.107 10.1328C215.213 10.168 215.326 10.1855 215.447 10.1855C215.537 10.1855 215.631 10.1777 215.729 10.1621C215.83 10.1426 215.906 10.127 215.957 10.1152L215.963 11C215.877 11.0273 215.764 11.0527 215.623 11.0762C215.486 11.1035 215.32 11.1172 215.125 11.1172C214.859 11.1172 214.615 11.0645 214.393 10.959C214.17 10.8535 213.992 10.6777 213.859 10.4316C213.73 10.1816 213.666 9.8457 213.666 9.42383V3.11914ZM220.346 2.46875H223.17C223.811 2.46875 224.352 2.56641 224.793 2.76172C225.238 2.95703 225.576 3.24609 225.807 3.62891C226.041 4.00781 226.158 4.47461 226.158 5.0293C226.158 5.41992 226.078 5.77734 225.918 6.10156C225.762 6.42188 225.535 6.69531 225.238 6.92188C224.945 7.14453 224.594 7.31055 224.184 7.41992L223.867 7.54297H221.213L221.201 6.62305H223.205C223.611 6.62305 223.949 6.55273 224.219 6.41211C224.488 6.26758 224.691 6.07422 224.828 5.83203C224.965 5.58984 225.033 5.32227 225.033 5.0293C225.033 4.70117 224.969 4.41406 224.84 4.16797C224.711 3.92188 224.508 3.73242 224.23 3.59961C223.957 3.46289 223.604 3.39453 223.17 3.39453H221.477V11H220.346V2.46875ZM225.332 11L223.258 7.13281L224.436 7.12695L226.539 10.9297V11H225.332ZM230.207 11.1172C229.766 11.1172 229.365 11.043 229.006 10.8945C228.65 10.7422 228.344 10.5293 228.086 10.2559C227.832 9.98242 227.637 9.6582 227.5 9.2832C227.363 8.9082 227.295 8.49805 227.295 8.05273V7.80664C227.295 7.29102 227.371 6.83203 227.523 6.42969C227.676 6.02344 227.883 5.67969 228.145 5.39844C228.406 5.11719 228.703 4.9043 229.035 4.75977C229.367 4.61523 229.711 4.54297 230.066 4.54297C230.52 4.54297 230.91 4.62109 231.238 4.77734C231.57 4.93359 231.842 5.15234 232.053 5.43359C232.264 5.71094 232.42 6.03906 232.521 6.41797C232.623 6.79297 232.674 7.20312 232.674 7.64844V8.13477H227.939V7.25H231.59V7.16797C231.574 6.88672 231.516 6.61328 231.414 6.34766C231.316 6.08203 231.16 5.86328 230.945 5.69141C230.73 5.51953 230.438 5.43359 230.066 5.43359C229.82 5.43359 229.594 5.48633 229.387 5.5918C229.18 5.69336 229.002 5.8457 228.854 6.04883C228.705 6.25195 228.59 6.5 228.508 6.79297C228.426 7.08594 228.385 7.42383 228.385 7.80664V8.05273C228.385 8.35352 228.426 8.63672 228.508 8.90234C228.594 9.16406 228.717 9.39453 228.877 9.59375C229.041 9.79297 229.238 9.94922 229.469 10.0625C229.703 10.1758 229.969 10.2324 230.266 10.2324C230.648 10.2324 230.973 10.1543 231.238 9.99805C231.504 9.8418 231.736 9.63281 231.936 9.37109L232.592 9.89258C232.455 10.0996 232.281 10.2969 232.07 10.4844C231.859 10.6719 231.6 10.8242 231.291 10.9414C230.986 11.0586 230.625 11.1172 230.207 11.1172ZM235.545 9.875L237.174 4.66016H237.889L237.748 5.69727L236.09 11H235.393L235.545 9.875ZM234.449 4.66016L235.838 9.93359L235.938 11H235.205L233.365 4.66016H234.449ZM239.447 9.89258L240.771 4.66016H241.85L240.01 11H239.283L239.447 9.89258ZM238.047 4.66016L239.641 9.78711L239.822 11H239.131L237.426 5.68555L237.285 4.66016H238.047ZM246.701 9.91602V6.65234C246.701 6.40234 246.65 6.18555 246.549 6.00195C246.451 5.81445 246.303 5.66992 246.104 5.56836C245.904 5.4668 245.658 5.41602 245.365 5.41602C245.092 5.41602 244.852 5.46289 244.645 5.55664C244.441 5.65039 244.281 5.77344 244.164 5.92578C244.051 6.07812 243.994 6.24219 243.994 6.41797H242.91C242.91 6.19141 242.969 5.9668 243.086 5.74414C243.203 5.52148 243.371 5.32031 243.59 5.14062C243.812 4.95703 244.078 4.8125 244.387 4.70703C244.699 4.59766 245.047 4.54297 245.43 4.54297C245.891 4.54297 246.297 4.62109 246.648 4.77734C247.004 4.93359 247.281 5.16992 247.48 5.48633C247.684 5.79883 247.785 6.19141 247.785 6.66406V9.61719C247.785 9.82812 247.803 10.0527 247.838 10.291C247.877 10.5293 247.934 10.7344 248.008 10.9062V11H246.877C246.822 10.875 246.779 10.709 246.748 10.502C246.717 10.291 246.701 10.0957 246.701 9.91602ZM246.889 7.15625L246.9 7.91797H245.805C245.496 7.91797 245.221 7.94336 244.979 7.99414C244.736 8.04102 244.533 8.11328 244.369 8.21094C244.205 8.30859 244.08 8.43164 243.994 8.58008C243.908 8.72461 243.865 8.89453 243.865 9.08984C243.865 9.28906 243.91 9.4707 244 9.63477C244.09 9.79883 244.225 9.92969 244.404 10.0273C244.588 10.1211 244.812 10.168 245.078 10.168C245.41 10.168 245.703 10.0977 245.957 9.95703C246.211 9.81641 246.412 9.64453 246.561 9.44141C246.713 9.23828 246.795 9.04102 246.807 8.84961L247.27 9.37109C247.242 9.53516 247.168 9.7168 247.047 9.91602C246.926 10.1152 246.764 10.3066 246.561 10.4902C246.361 10.6699 246.123 10.8203 245.846 10.9414C245.572 11.0586 245.264 11.1172 244.92 11.1172C244.49 11.1172 244.113 11.0332 243.789 10.8652C243.469 10.6973 243.219 10.4727 243.039 10.1914C242.863 9.90625 242.775 9.58789 242.775 9.23633C242.775 8.89648 242.842 8.59766 242.975 8.33984C243.107 8.07812 243.299 7.86133 243.549 7.68945C243.799 7.51367 244.1 7.38086 244.451 7.29102C244.803 7.20117 245.195 7.15625 245.629 7.15625H246.889ZM250.574 5.65625V11H249.49V4.66016H250.545L250.574 5.65625ZM252.555 4.625L252.549 5.63281C252.459 5.61328 252.373 5.60156 252.291 5.59766C252.213 5.58984 252.123 5.58594 252.021 5.58594C251.771 5.58594 251.551 5.625 251.359 5.70312C251.168 5.78125 251.006 5.89062 250.873 6.03125C250.74 6.17188 250.635 6.33984 250.557 6.53516C250.482 6.72656 250.434 6.9375 250.41 7.16797L250.105 7.34375C250.105 6.96094 250.143 6.60156 250.217 6.26562C250.295 5.92969 250.414 5.63281 250.574 5.375C250.734 5.11328 250.938 4.91016 251.184 4.76562C251.434 4.61719 251.73 4.54297 252.074 4.54297C252.152 4.54297 252.242 4.55273 252.344 4.57227C252.445 4.58789 252.516 4.60547 252.555 4.625ZM257.436 9.76953V2H258.525V11H257.529L257.436 9.76953ZM253.17 7.90039V7.77734C253.17 7.29297 253.229 6.85352 253.346 6.45898C253.467 6.06055 253.637 5.71875 253.855 5.43359C254.078 5.14844 254.342 4.92969 254.646 4.77734C254.955 4.62109 255.299 4.54297 255.678 4.54297C256.076 4.54297 256.424 4.61328 256.721 4.75391C257.021 4.89062 257.275 5.0918 257.482 5.35742C257.693 5.61914 257.859 5.93555 257.98 6.30664C258.102 6.67773 258.186 7.09766 258.232 7.56641V8.10547C258.189 8.57031 258.105 8.98828 257.98 9.35938C257.859 9.73047 257.693 10.0469 257.482 10.3086C257.275 10.5703 257.021 10.7715 256.721 10.9121C256.42 11.0488 256.068 11.1172 255.666 11.1172C255.295 11.1172 254.955 11.0371 254.646 10.877C254.342 10.7168 254.078 10.4922 253.855 10.2031C253.637 9.91406 253.467 9.57422 253.346 9.18359C253.229 8.78906 253.17 8.36133 253.17 7.90039ZM254.26 7.77734V7.90039C254.26 8.2168 254.291 8.51367 254.354 8.79102C254.42 9.06836 254.521 9.3125 254.658 9.52344C254.795 9.73438 254.969 9.90039 255.18 10.0215C255.391 10.1387 255.643 10.1973 255.936 10.1973C256.295 10.1973 256.59 10.1211 256.82 9.96875C257.055 9.81641 257.242 9.61523 257.383 9.36523C257.523 9.11523 257.633 8.84375 257.711 8.55078V7.13867C257.664 6.92383 257.596 6.7168 257.506 6.51758C257.42 6.31445 257.307 6.13477 257.166 5.97852C257.029 5.81836 256.859 5.69141 256.656 5.59766C256.457 5.50391 256.221 5.45703 255.947 5.45703C255.65 5.45703 255.395 5.51953 255.18 5.64453C254.969 5.76562 254.795 5.93359 254.658 6.14844C254.521 6.35938 254.42 6.60547 254.354 6.88672C254.291 7.16406 254.26 7.46094 254.26 7.77734ZM263.904 9.31836C263.904 9.16211 263.869 9.01758 263.799 8.88477C263.732 8.74805 263.594 8.625 263.383 8.51562C263.176 8.40234 262.863 8.30469 262.445 8.22266C262.094 8.14844 261.775 8.06055 261.49 7.95898C261.209 7.85742 260.969 7.73438 260.77 7.58984C260.574 7.44531 260.424 7.27539 260.318 7.08008C260.213 6.88477 260.16 6.65625 260.16 6.39453C260.16 6.14453 260.215 5.9082 260.324 5.68555C260.438 5.46289 260.596 5.26562 260.799 5.09375C261.006 4.92188 261.254 4.78711 261.543 4.68945C261.832 4.5918 262.154 4.54297 262.51 4.54297C263.018 4.54297 263.451 4.63281 263.811 4.8125C264.17 4.99219 264.445 5.23242 264.637 5.5332C264.828 5.83008 264.924 6.16016 264.924 6.52344H263.84C263.84 6.34766 263.787 6.17773 263.682 6.01367C263.58 5.8457 263.43 5.70703 263.23 5.59766C263.035 5.48828 262.795 5.43359 262.51 5.43359C262.209 5.43359 261.965 5.48047 261.777 5.57422C261.594 5.66406 261.459 5.7793 261.373 5.91992C261.291 6.06055 261.25 6.20898 261.25 6.36523C261.25 6.48242 261.27 6.58789 261.309 6.68164C261.352 6.77148 261.426 6.85547 261.531 6.93359C261.637 7.00781 261.785 7.07812 261.977 7.14453C262.168 7.21094 262.412 7.27734 262.709 7.34375C263.229 7.46094 263.656 7.60156 263.992 7.76562C264.328 7.92969 264.578 8.13086 264.742 8.36914C264.906 8.60742 264.988 8.89648 264.988 9.23633C264.988 9.51367 264.93 9.76758 264.812 9.99805C264.699 10.2285 264.533 10.4277 264.314 10.5957C264.1 10.7598 263.842 10.8887 263.541 10.9824C263.244 11.0723 262.91 11.1172 262.539 11.1172C261.98 11.1172 261.508 11.0176 261.121 10.8184C260.734 10.6191 260.441 10.3613 260.242 10.0449C260.043 9.72852 259.943 9.39453 259.943 9.04297H261.033C261.049 9.33984 261.135 9.57617 261.291 9.75195C261.447 9.92383 261.639 10.0469 261.865 10.1211C262.092 10.1914 262.316 10.2266 262.539 10.2266C262.836 10.2266 263.084 10.1875 263.283 10.1094C263.486 10.0312 263.641 9.92383 263.746 9.78711C263.852 9.65039 263.904 9.49414 263.904 9.31836Z" fill="black"/>
<path d="M270.498 67.0801V68H266.232V67.0801H270.498ZM266.455 59.4688V68H265.324V59.4688H266.455ZM274.939 64.6543H272.66V63.7344H274.939C275.381 63.7344 275.738 63.6641 276.012 63.5234C276.285 63.3828 276.484 63.1875 276.609 62.9375C276.738 62.6875 276.803 62.4023 276.803 62.082C276.803 61.7891 276.738 61.5137 276.609 61.2559C276.484 60.998 276.285 60.791 276.012 60.6348C275.738 60.4746 275.381 60.3945 274.939 60.3945H272.924V68H271.793V59.4688H274.939C275.584 59.4688 276.129 59.5801 276.574 59.8027C277.02 60.0254 277.357 60.334 277.588 60.7285C277.818 61.1191 277.934 61.5664 277.934 62.0703C277.934 62.6172 277.818 63.084 277.588 63.4707C277.357 63.8574 277.02 64.1523 276.574 64.3555C276.129 64.5547 275.584 64.6543 274.939 64.6543ZM283.553 59.4688V68H282.422V59.4688H283.553ZM286.529 63.0137V68H285.445V61.6602H286.471L286.529 63.0137ZM286.271 64.5898L285.82 64.5723C285.824 64.1387 285.889 63.7383 286.014 63.3711C286.139 63 286.314 62.6777 286.541 62.4043C286.768 62.1309 287.037 61.9199 287.35 61.7715C287.666 61.6191 288.016 61.543 288.398 61.543C288.711 61.543 288.992 61.5859 289.242 61.6719C289.492 61.7539 289.705 61.8867 289.881 62.0703C290.061 62.2539 290.197 62.4922 290.291 62.7852C290.385 63.0742 290.432 63.4277 290.432 63.8457V68H289.342V63.834C289.342 63.502 289.293 63.2363 289.195 63.0371C289.098 62.834 288.955 62.6875 288.768 62.5977C288.58 62.5039 288.35 62.457 288.076 62.457C287.807 62.457 287.561 62.5137 287.338 62.627C287.119 62.7402 286.93 62.8965 286.77 63.0957C286.613 63.2949 286.49 63.5234 286.4 63.7812C286.314 64.0352 286.271 64.3047 286.271 64.5898ZM294.615 67.2266C294.873 67.2266 295.111 67.1738 295.33 67.0684C295.549 66.9629 295.729 66.8184 295.869 66.6348C296.01 66.4473 296.09 66.2344 296.109 65.9961H297.141C297.121 66.3711 296.994 66.7207 296.76 67.0449C296.529 67.3652 296.227 67.625 295.852 67.8242C295.477 68.0195 295.064 68.1172 294.615 68.1172C294.139 68.1172 293.723 68.0332 293.367 67.8652C293.016 67.6973 292.723 67.4668 292.488 67.1738C292.258 66.8809 292.084 66.5449 291.967 66.166C291.854 65.7832 291.797 65.3789 291.797 64.9531V64.707C291.797 64.2812 291.854 63.8789 291.967 63.5C292.084 63.1172 292.258 62.7793 292.488 62.4863C292.723 62.1934 293.016 61.9629 293.367 61.7949C293.723 61.627 294.139 61.543 294.615 61.543C295.111 61.543 295.545 61.6445 295.916 61.8477C296.287 62.0469 296.578 62.3203 296.789 62.668C297.004 63.0117 297.121 63.4023 297.141 63.8398H296.109C296.09 63.5781 296.016 63.3418 295.887 63.1309C295.762 62.9199 295.59 62.752 295.371 62.627C295.156 62.498 294.904 62.4336 294.615 62.4336C294.283 62.4336 294.004 62.5 293.777 62.6328C293.555 62.7617 293.377 62.9375 293.244 63.1602C293.115 63.3789 293.021 63.623 292.963 63.8926C292.908 64.1582 292.881 64.4297 292.881 64.707V64.9531C292.881 65.2305 292.908 65.5039 292.963 65.7734C293.018 66.043 293.109 66.2871 293.238 66.5059C293.371 66.7246 293.549 66.9004 293.771 67.0332C293.998 67.1621 294.279 67.2266 294.615 67.2266ZM300.99 68.1172C300.549 68.1172 300.148 68.043 299.789 67.8945C299.434 67.7422 299.127 67.5293 298.869 67.2559C298.615 66.9824 298.42 66.6582 298.283 66.2832C298.146 65.9082 298.078 65.498 298.078 65.0527V64.8066C298.078 64.291 298.154 63.832 298.307 63.4297C298.459 63.0234 298.666 62.6797 298.928 62.3984C299.189 62.1172 299.486 61.9043 299.818 61.7598C300.15 61.6152 300.494 61.543 300.85 61.543C301.303 61.543 301.693 61.6211 302.021 61.7773C302.354 61.9336 302.625 62.1523 302.836 62.4336C303.047 62.7109 303.203 63.0391 303.305 63.418C303.406 63.793 303.457 64.2031 303.457 64.6484V65.1348H298.723V64.25H302.373V64.168C302.357 63.8867 302.299 63.6133 302.197 63.3477C302.1 63.082 301.943 62.8633 301.729 62.6914C301.514 62.5195 301.221 62.4336 300.85 62.4336C300.604 62.4336 300.377 62.4863 300.17 62.5918C299.963 62.6934 299.785 62.8457 299.637 63.0488C299.488 63.252 299.373 63.5 299.291 63.793C299.209 64.0859 299.168 64.4238 299.168 64.8066V65.0527C299.168 65.3535 299.209 65.6367 299.291 65.9023C299.377 66.1641 299.5 66.3945 299.66 66.5938C299.824 66.793 300.021 66.9492 300.252 67.0625C300.486 67.1758 300.752 67.2324 301.049 67.2324C301.432 67.2324 301.756 67.1543 302.021 66.998C302.287 66.8418 302.52 66.6328 302.719 66.3711L303.375 66.8926C303.238 67.0996 303.064 67.2969 302.854 67.4844C302.643 67.6719 302.383 67.8242 302.074 67.9414C301.77 68.0586 301.408 68.1172 300.99 68.1172ZM305.807 63.0137V68H304.723V61.6602H305.748L305.807 63.0137ZM305.549 64.5898L305.098 64.5723C305.102 64.1387 305.166 63.7383 305.291 63.3711C305.416 63 305.592 62.6777 305.818 62.4043C306.045 62.1309 306.314 61.9199 306.627 61.7715C306.943 61.6191 307.293 61.543 307.676 61.543C307.988 61.543 308.27 61.5859 308.52 61.6719C308.77 61.7539 308.982 61.8867 309.158 62.0703C309.338 62.2539 309.475 62.4922 309.568 62.7852C309.662 63.0742 309.709 63.4277 309.709 63.8457V68H308.619V63.834C308.619 63.502 308.57 63.2363 308.473 63.0371C308.375 62.834 308.232 62.6875 308.045 62.5977C307.857 62.5039 307.627 62.457 307.354 62.457C307.084 62.457 306.838 62.5137 306.615 62.627C306.396 62.7402 306.207 62.8965 306.047 63.0957C305.891 63.2949 305.768 63.5234 305.678 63.7812C305.592 64.0352 305.549 64.3047 305.549 64.5898ZM314.01 61.6602V62.4922H310.582V61.6602H314.01ZM311.742 60.1191H312.826V66.4297C312.826 66.6445 312.859 66.8066 312.926 66.916C312.992 67.0254 313.078 67.0977 313.184 67.1328C313.289 67.168 313.402 67.1855 313.523 67.1855C313.613 67.1855 313.707 67.1777 313.805 67.1621C313.906 67.1426 313.982 67.127 314.033 67.1152L314.039 68C313.953 68.0273 313.84 68.0527 313.699 68.0762C313.562 68.1035 313.396 68.1172 313.201 68.1172C312.936 68.1172 312.691 68.0645 312.469 67.959C312.246 67.8535 312.068 67.6777 311.936 67.4316C311.807 67.1816 311.742 66.8457 311.742 66.4238V60.1191ZM316.459 61.6602V68H315.369V61.6602H316.459ZM315.287 59.9785C315.287 59.8027 315.34 59.6543 315.445 59.5332C315.555 59.4121 315.715 59.3516 315.926 59.3516C316.133 59.3516 316.291 59.4121 316.4 59.5332C316.514 59.6543 316.57 59.8027 316.57 59.9785C316.57 60.1465 316.514 60.291 316.4 60.4121C316.291 60.5293 316.133 60.5879 315.926 60.5879C315.715 60.5879 315.555 60.5293 315.445 60.4121C315.34 60.291 315.287 60.1465 315.287 59.9785ZM320.127 67.0215L321.861 61.6602H322.969L320.689 68H319.963L320.127 67.0215ZM318.68 61.6602L320.467 67.0508L320.59 68H319.863L317.566 61.6602H318.68ZM326.561 68.1172C326.119 68.1172 325.719 68.043 325.359 67.8945C325.004 67.7422 324.697 67.5293 324.439 67.2559C324.186 66.9824 323.99 66.6582 323.854 66.2832C323.717 65.9082 323.648 65.498 323.648 65.0527V64.8066C323.648 64.291 323.725 63.832 323.877 63.4297C324.029 63.0234 324.236 62.6797 324.498 62.3984C324.76 62.1172 325.057 61.9043 325.389 61.7598C325.721 61.6152 326.064 61.543 326.42 61.543C326.873 61.543 327.264 61.6211 327.592 61.7773C327.924 61.9336 328.195 62.1523 328.406 62.4336C328.617 62.7109 328.773 63.0391 328.875 63.418C328.977 63.793 329.027 64.2031 329.027 64.6484V65.1348H324.293V64.25H327.943V64.168C327.928 63.8867 327.869 63.6133 327.768 63.3477C327.67 63.082 327.514 62.8633 327.299 62.6914C327.084 62.5195 326.791 62.4336 326.42 62.4336C326.174 62.4336 325.947 62.4863 325.74 62.5918C325.533 62.6934 325.355 62.8457 325.207 63.0488C325.059 63.252 324.943 63.5 324.861 63.793C324.779 64.0859 324.738 64.4238 324.738 64.8066V65.0527C324.738 65.3535 324.779 65.6367 324.861 65.9023C324.947 66.1641 325.07 66.3945 325.23 66.5938C325.395 66.793 325.592 66.9492 325.822 67.0625C326.057 67.1758 326.322 67.2324 326.619 67.2324C327.002 67.2324 327.326 67.1543 327.592 66.998C327.857 66.8418 328.09 66.6328 328.289 66.3711L328.945 66.8926C328.809 67.0996 328.635 67.2969 328.424 67.4844C328.213 67.6719 327.953 67.8242 327.645 67.9414C327.34 68.0586 326.979 68.1172 326.561 68.1172ZM333.984 66.3184C333.984 66.1621 333.949 66.0176 333.879 65.8848C333.812 65.748 333.674 65.625 333.463 65.5156C333.256 65.4023 332.943 65.3047 332.525 65.2227C332.174 65.1484 331.855 65.0605 331.57 64.959C331.289 64.8574 331.049 64.7344 330.85 64.5898C330.654 64.4453 330.504 64.2754 330.398 64.0801C330.293 63.8848 330.24 63.6562 330.24 63.3945C330.24 63.1445 330.295 62.9082 330.404 62.6855C330.518 62.4629 330.676 62.2656 330.879 62.0938C331.086 61.9219 331.334 61.7871 331.623 61.6895C331.912 61.5918 332.234 61.543 332.59 61.543C333.098 61.543 333.531 61.6328 333.891 61.8125C334.25 61.9922 334.525 62.2324 334.717 62.5332C334.908 62.8301 335.004 63.1602 335.004 63.5234H333.92C333.92 63.3477 333.867 63.1777 333.762 63.0137C333.66 62.8457 333.51 62.707 333.311 62.5977C333.115 62.4883 332.875 62.4336 332.59 62.4336C332.289 62.4336 332.045 62.4805 331.857 62.5742C331.674 62.6641 331.539 62.7793 331.453 62.9199C331.371 63.0605 331.33 63.209 331.33 63.3652C331.33 63.4824 331.35 63.5879 331.389 63.6816C331.432 63.7715 331.506 63.8555 331.611 63.9336C331.717 64.0078 331.865 64.0781 332.057 64.1445C332.248 64.2109 332.492 64.2773 332.789 64.3438C333.309 64.4609 333.736 64.6016 334.072 64.7656C334.408 64.9297 334.658 65.1309 334.822 65.3691C334.986 65.6074 335.068 65.8965 335.068 66.2363C335.068 66.5137 335.01 66.7676 334.893 66.998C334.779 67.2285 334.613 67.4277 334.395 67.5957C334.18 67.7598 333.922 67.8887 333.621 67.9824C333.324 68.0723 332.99 68.1172 332.619 68.1172C332.061 68.1172 331.588 68.0176 331.201 67.8184C330.814 67.6191 330.521 67.3613 330.322 67.0449C330.123 66.7285 330.023 66.3945 330.023 66.043H331.113C331.129 66.3398 331.215 66.5762 331.371 66.752C331.527 66.9238 331.719 67.0469 331.945 67.1211C332.172 67.1914 332.396 67.2266 332.619 67.2266C332.916 67.2266 333.164 67.1875 333.363 67.1094C333.566 67.0312 333.721 66.9238 333.826 66.7871C333.932 66.6504 333.984 66.4941 333.984 66.3184Z" fill="black"/>
<path d="M310.467 167.225L307.643 175H306.488L309.74 166.469H310.484L310.467 167.225ZM312.834 175L310.004 167.225L309.986 166.469H310.73L313.994 175H312.834ZM312.688 171.842V172.768H307.895V171.842H312.688ZM316.057 169.656V175H314.973V168.66H316.027L316.057 169.656ZM318.037 168.625L318.031 169.633C317.941 169.613 317.855 169.602 317.773 169.598C317.695 169.59 317.605 169.586 317.504 169.586C317.254 169.586 317.033 169.625 316.842 169.703C316.65 169.781 316.488 169.891 316.355 170.031C316.223 170.172 316.117 170.34 316.039 170.535C315.965 170.727 315.916 170.938 315.893 171.168L315.588 171.344C315.588 170.961 315.625 170.602 315.699 170.266C315.777 169.93 315.896 169.633 316.057 169.375C316.217 169.113 316.42 168.91 316.666 168.766C316.916 168.617 317.213 168.543 317.557 168.543C317.635 168.543 317.725 168.553 317.826 168.572C317.928 168.588 317.998 168.605 318.037 168.625ZM321.986 168.66V169.492H318.559V168.66H321.986ZM319.719 167.119H320.803V173.43C320.803 173.645 320.836 173.807 320.902 173.916C320.969 174.025 321.055 174.098 321.16 174.133C321.266 174.168 321.379 174.186 321.5 174.186C321.59 174.186 321.684 174.178 321.781 174.162C321.883 174.143 321.959 174.127 322.01 174.115L322.016 175C321.93 175.027 321.816 175.053 321.676 175.076C321.539 175.104 321.373 175.117 321.178 175.117C320.912 175.117 320.668 175.064 320.445 174.959C320.223 174.854 320.045 174.678 319.912 174.432C319.783 174.182 319.719 173.846 319.719 173.424V167.119ZM324.436 168.66V175H323.346V168.66H324.436ZM323.264 166.979C323.264 166.803 323.316 166.654 323.422 166.533C323.531 166.412 323.691 166.352 323.902 166.352C324.109 166.352 324.268 166.412 324.377 166.533C324.49 166.654 324.547 166.803 324.547 166.979C324.547 167.146 324.49 167.291 324.377 167.412C324.268 167.529 324.109 167.588 323.902 167.588C323.691 167.588 323.531 167.529 323.422 167.412C323.316 167.291 323.264 167.146 323.264 166.979ZM329.867 173.318C329.867 173.162 329.832 173.018 329.762 172.885C329.695 172.748 329.557 172.625 329.346 172.516C329.139 172.402 328.826 172.305 328.408 172.223C328.057 172.148 327.738 172.061 327.453 171.959C327.172 171.857 326.932 171.734 326.732 171.59C326.537 171.445 326.387 171.275 326.281 171.08C326.176 170.885 326.123 170.656 326.123 170.395C326.123 170.145 326.178 169.908 326.287 169.686C326.4 169.463 326.559 169.266 326.762 169.094C326.969 168.922 327.217 168.787 327.506 168.689C327.795 168.592 328.117 168.543 328.473 168.543C328.98 168.543 329.414 168.633 329.773 168.812C330.133 168.992 330.408 169.232 330.6 169.533C330.791 169.83 330.887 170.16 330.887 170.523H329.803C329.803 170.348 329.75 170.178 329.645 170.014C329.543 169.846 329.393 169.707 329.193 169.598C328.998 169.488 328.758 169.434 328.473 169.434C328.172 169.434 327.928 169.48 327.74 169.574C327.557 169.664 327.422 169.779 327.336 169.92C327.254 170.061 327.213 170.209 327.213 170.365C327.213 170.482 327.232 170.588 327.271 170.682C327.314 170.771 327.389 170.855 327.494 170.934C327.6 171.008 327.748 171.078 327.939 171.145C328.131 171.211 328.375 171.277 328.672 171.344C329.191 171.461 329.619 171.602 329.955 171.766C330.291 171.93 330.541 172.131 330.705 172.369C330.869 172.607 330.951 172.896 330.951 173.236C330.951 173.514 330.893 173.768 330.775 173.998C330.662 174.229 330.496 174.428 330.277 174.596C330.062 174.76 329.805 174.889 329.504 174.982C329.207 175.072 328.873 175.117 328.502 175.117C327.943 175.117 327.471 175.018 327.084 174.818C326.697 174.619 326.404 174.361 326.205 174.045C326.006 173.729 325.906 173.395 325.906 173.043H326.996C327.012 173.34 327.098 173.576 327.254 173.752C327.41 173.924 327.602 174.047 327.828 174.121C328.055 174.191 328.279 174.227 328.502 174.227C328.799 174.227 329.047 174.188 329.246 174.109C329.449 174.031 329.604 173.924 329.709 173.787C329.814 173.65 329.867 173.494 329.867 173.318ZM335.029 168.66V169.492H331.602V168.66H335.029ZM332.762 167.119H333.846V173.43C333.846 173.645 333.879 173.807 333.945 173.916C334.012 174.025 334.098 174.098 334.203 174.133C334.309 174.168 334.422 174.186 334.543 174.186C334.633 174.186 334.727 174.178 334.824 174.162C334.926 174.143 335.002 174.127 335.053 174.115L335.059 175C334.973 175.027 334.859 175.053 334.719 175.076C334.582 175.104 334.416 175.117 334.221 175.117C333.955 175.117 333.711 175.064 333.488 174.959C333.266 174.854 333.088 174.678 332.955 174.432C332.826 174.182 332.762 173.846 332.762 173.424V167.119ZM339.441 166.469H342.266C342.906 166.469 343.447 166.566 343.889 166.762C344.334 166.957 344.672 167.246 344.902 167.629C345.137 168.008 345.254 168.475 345.254 169.029C345.254 169.42 345.174 169.777 345.014 170.102C344.857 170.422 344.631 170.695 344.334 170.922C344.041 171.145 343.689 171.311 343.279 171.42L342.963 171.543H340.309L340.297 170.623H342.301C342.707 170.623 343.045 170.553 343.314 170.412C343.584 170.268 343.787 170.074 343.924 169.832C344.061 169.59 344.129 169.322 344.129 169.029C344.129 168.701 344.064 168.414 343.936 168.168C343.807 167.922 343.604 167.732 343.326 167.6C343.053 167.463 342.699 167.395 342.266 167.395H340.572V175H339.441V166.469ZM344.428 175L342.354 171.133L343.531 171.127L345.635 174.93V175H344.428ZM349.303 175.117C348.861 175.117 348.461 175.043 348.102 174.895C347.746 174.742 347.439 174.529 347.182 174.256C346.928 173.982 346.732 173.658 346.596 173.283C346.459 172.908 346.391 172.498 346.391 172.053V171.807C346.391 171.291 346.467 170.832 346.619 170.43C346.771 170.023 346.979 169.68 347.24 169.398C347.502 169.117 347.799 168.904 348.131 168.76C348.463 168.615 348.807 168.543 349.162 168.543C349.615 168.543 350.006 168.621 350.334 168.777C350.666 168.934 350.938 169.152 351.148 169.434C351.359 169.711 351.516 170.039 351.617 170.418C351.719 170.793 351.77 171.203 351.77 171.648V172.135H347.035V171.25H350.686V171.168C350.67 170.887 350.611 170.613 350.51 170.348C350.412 170.082 350.256 169.863 350.041 169.691C349.826 169.52 349.533 169.434 349.162 169.434C348.916 169.434 348.689 169.486 348.482 169.592C348.275 169.693 348.098 169.846 347.949 170.049C347.801 170.252 347.686 170.5 347.604 170.793C347.521 171.086 347.48 171.424 347.48 171.807V172.053C347.48 172.354 347.521 172.637 347.604 172.902C347.689 173.164 347.812 173.395 347.973 173.594C348.137 173.793 348.334 173.949 348.564 174.062C348.799 174.176 349.064 174.232 349.361 174.232C349.744 174.232 350.068 174.154 350.334 173.998C350.6 173.842 350.832 173.633 351.031 173.371L351.688 173.893C351.551 174.1 351.377 174.297 351.166 174.484C350.955 174.672 350.695 174.824 350.387 174.941C350.082 175.059 349.721 175.117 349.303 175.117ZM354.641 173.875L356.27 168.66H356.984L356.844 169.697L355.186 175H354.488L354.641 173.875ZM353.545 168.66L354.934 173.934L355.033 175H354.301L352.461 168.66H353.545ZM358.543 173.893L359.867 168.66H360.945L359.105 175H358.379L358.543 173.893ZM357.143 168.66L358.736 173.787L358.918 175H358.227L356.521 169.686L356.381 168.66H357.143ZM365.797 173.916V170.652C365.797 170.402 365.746 170.186 365.645 170.002C365.547 169.814 365.398 169.67 365.199 169.568C365 169.467 364.754 169.416 364.461 169.416C364.188 169.416 363.947 169.463 363.74 169.557C363.537 169.65 363.377 169.773 363.26 169.926C363.146 170.078 363.09 170.242 363.09 170.418H362.006C362.006 170.191 362.064 169.967 362.182 169.744C362.299 169.521 362.467 169.32 362.686 169.141C362.908 168.957 363.174 168.812 363.482 168.707C363.795 168.598 364.143 168.543 364.525 168.543C364.986 168.543 365.393 168.621 365.744 168.777C366.1 168.934 366.377 169.17 366.576 169.486C366.779 169.799 366.881 170.191 366.881 170.664V173.617C366.881 173.828 366.898 174.053 366.934 174.291C366.973 174.529 367.029 174.734 367.104 174.906V175H365.973C365.918 174.875 365.875 174.709 365.844 174.502C365.812 174.291 365.797 174.096 365.797 173.916ZM365.984 171.156L365.996 171.918H364.9C364.592 171.918 364.316 171.943 364.074 171.994C363.832 172.041 363.629 172.113 363.465 172.211C363.301 172.309 363.176 172.432 363.09 172.58C363.004 172.725 362.961 172.895 362.961 173.09C362.961 173.289 363.006 173.471 363.096 173.635C363.186 173.799 363.32 173.93 363.5 174.027C363.684 174.121 363.908 174.168 364.174 174.168C364.506 174.168 364.799 174.098 365.053 173.957C365.307 173.816 365.508 173.645 365.656 173.441C365.809 173.238 365.891 173.041 365.902 172.85L366.365 173.371C366.338 173.535 366.264 173.717 366.143 173.916C366.021 174.115 365.859 174.307 365.656 174.49C365.457 174.67 365.219 174.82 364.941 174.941C364.668 175.059 364.359 175.117 364.016 175.117C363.586 175.117 363.209 175.033 362.885 174.865C362.564 174.697 362.314 174.473 362.135 174.191C361.959 173.906 361.871 173.588 361.871 173.236C361.871 172.896 361.938 172.598 362.07 172.34C362.203 172.078 362.395 171.861 362.645 171.689C362.895 171.514 363.195 171.381 363.547 171.291C363.898 171.201 364.291 171.156 364.725 171.156H365.984ZM369.67 169.656V175H368.586V168.66H369.641L369.67 169.656ZM371.65 168.625L371.645 169.633C371.555 169.613 371.469 169.602 371.387 169.598C371.309 169.59 371.219 169.586 371.117 169.586C370.867 169.586 370.646 169.625 370.455 169.703C370.264 169.781 370.102 169.891 369.969 170.031C369.836 170.172 369.73 170.34 369.652 170.535C369.578 170.727 369.529 170.938 369.506 171.168L369.201 171.344C369.201 170.961 369.238 170.602 369.312 170.266C369.391 169.93 369.51 169.633 369.67 169.375C369.83 169.113 370.033 168.91 370.279 168.766C370.529 168.617 370.826 168.543 371.17 168.543C371.248 168.543 371.338 168.553 371.439 168.572C371.541 168.588 371.611 168.605 371.65 168.625ZM376.531 173.77V166H377.621V175H376.625L376.531 173.77ZM372.266 171.9V171.777C372.266 171.293 372.324 170.854 372.441 170.459C372.562 170.061 372.732 169.719 372.951 169.434C373.174 169.148 373.438 168.93 373.742 168.777C374.051 168.621 374.395 168.543 374.773 168.543C375.172 168.543 375.52 168.613 375.816 168.754C376.117 168.891 376.371 169.092 376.578 169.357C376.789 169.619 376.955 169.936 377.076 170.307C377.197 170.678 377.281 171.098 377.328 171.566V172.105C377.285 172.57 377.201 172.988 377.076 173.359C376.955 173.73 376.789 174.047 376.578 174.309C376.371 174.57 376.117 174.771 375.816 174.912C375.516 175.049 375.164 175.117 374.762 175.117C374.391 175.117 374.051 175.037 373.742 174.877C373.438 174.717 373.174 174.492 372.951 174.203C372.732 173.914 372.562 173.574 372.441 173.184C372.324 172.789 372.266 172.361 372.266 171.9ZM373.355 171.777V171.9C373.355 172.217 373.387 172.514 373.449 172.791C373.516 173.068 373.617 173.312 373.754 173.523C373.891 173.734 374.064 173.9 374.275 174.021C374.486 174.139 374.738 174.197 375.031 174.197C375.391 174.197 375.686 174.121 375.916 173.969C376.15 173.816 376.338 173.615 376.479 173.365C376.619 173.115 376.729 172.844 376.807 172.551V171.139C376.76 170.924 376.691 170.717 376.602 170.518C376.516 170.314 376.402 170.135 376.262 169.979C376.125 169.818 375.955 169.691 375.752 169.598C375.553 169.504 375.316 169.457 375.043 169.457C374.746 169.457 374.49 169.52 374.275 169.645C374.064 169.766 373.891 169.934 373.754 170.148C373.617 170.359 373.516 170.605 373.449 170.887C373.387 171.164 373.355 171.461 373.355 171.777ZM383 173.318C383 173.162 382.965 173.018 382.895 172.885C382.828 172.748 382.689 172.625 382.479 172.516C382.271 172.402 381.959 172.305 381.541 172.223C381.189 172.148 380.871 172.061 380.586 171.959C380.305 171.857 380.064 171.734 379.865 171.59C379.67 171.445 379.52 171.275 379.414 171.08C379.309 170.885 379.256 170.656 379.256 170.395C379.256 170.145 379.311 169.908 379.42 169.686C379.533 169.463 379.691 169.266 379.895 169.094C380.102 168.922 380.35 168.787 380.639 168.689C380.928 168.592 381.25 168.543 381.605 168.543C382.113 168.543 382.547 168.633 382.906 168.812C383.266 168.992 383.541 169.232 383.732 169.533C383.924 169.83 384.02 170.16 384.02 170.523H382.936C382.936 170.348 382.883 170.178 382.777 170.014C382.676 169.846 382.525 169.707 382.326 169.598C382.131 169.488 381.891 169.434 381.605 169.434C381.305 169.434 381.061 169.48 380.873 169.574C380.689 169.664 380.555 169.779 380.469 169.92C380.387 170.061 380.346 170.209 380.346 170.365C380.346 170.482 380.365 170.588 380.404 170.682C380.447 170.771 380.521 170.855 380.627 170.934C380.732 171.008 380.881 171.078 381.072 171.145C381.264 171.211 381.508 171.277 381.805 171.344C382.324 171.461 382.752 171.602 383.088 171.766C383.424 171.93 383.674 172.131 383.838 172.369C384.002 172.607 384.084 172.896 384.084 173.236C384.084 173.514 384.025 173.768 383.908 173.998C383.795 174.229 383.629 174.428 383.41 174.596C383.195 174.76 382.938 174.889 382.637 174.982C382.34 175.072 382.006 175.117 381.635 175.117C381.076 175.117 380.604 175.018 380.217 174.818C379.83 174.619 379.537 174.361 379.338 174.045C379.139 173.729 379.039 173.395 379.039 173.043H380.129C380.145 173.34 380.23 173.576 380.387 173.752C380.543 173.924 380.734 174.047 380.961 174.121C381.188 174.191 381.412 174.227 381.635 174.227C381.932 174.227 382.18 174.188 382.379 174.109C382.582 174.031 382.736 173.924 382.842 173.787C382.947 173.65 383 173.494 383 173.318Z" fill="black"/>
<path d="M38.4442 208.859H36.663L36.6747 207.939H38.4442C39.0536 207.939 39.5614 207.812 39.9677 207.558C40.3739 207.301 40.6786 206.941 40.8817 206.48C41.0887 206.015 41.1923 205.472 41.1923 204.851V204.33C41.1923 203.842 41.1337 203.408 41.0165 203.029C40.8993 202.646 40.7274 202.324 40.5009 202.062C40.2743 201.797 39.9969 201.595 39.6688 201.459C39.3446 201.322 38.9716 201.254 38.5497 201.254H36.6278V200.328H38.5497C39.1083 200.328 39.618 200.422 40.079 200.609C40.5399 200.793 40.9364 201.06 41.2684 201.412C41.6044 201.76 41.8622 202.181 42.0419 202.677C42.2216 203.17 42.3114 203.724 42.3114 204.342V204.851C42.3114 205.469 42.2216 206.025 42.0419 206.521C41.8622 207.013 41.6024 207.433 41.2626 207.781C40.9266 208.129 40.5204 208.396 40.0438 208.584C39.5712 208.767 39.038 208.859 38.4442 208.859ZM37.2665 200.328V208.859H36.1356V200.328H37.2665ZM47.0399 201.084L44.2157 208.859H43.0614L46.3134 200.328H47.0575L47.0399 201.084ZM49.4071 208.859L46.577 201.084L46.5594 200.328H47.3036L50.5673 208.859H49.4071ZM49.2606 205.701V206.627H44.4677V205.701H49.2606ZM58.2079 204.324V204.863C58.2079 205.504 58.1278 206.078 57.9677 206.586C57.8075 207.094 57.577 207.525 57.2762 207.881C56.9755 208.236 56.6141 208.508 56.1923 208.695C55.7743 208.883 55.3055 208.976 54.786 208.976C54.2821 208.976 53.8192 208.883 53.3973 208.695C52.9794 208.508 52.6161 208.236 52.3075 207.881C52.0028 207.525 51.7665 207.094 51.5985 206.586C51.4305 206.078 51.3466 205.504 51.3466 204.863V204.324C51.3466 203.683 51.4286 203.111 51.5927 202.607C51.7606 202.099 51.9969 201.668 52.3016 201.312C52.6063 200.953 52.9677 200.679 53.3856 200.492C53.8075 200.304 54.2704 200.211 54.7743 200.211C55.2938 200.211 55.7626 200.304 56.1805 200.492C56.6024 200.679 56.9637 200.953 57.2645 201.312C57.5692 201.668 57.8016 202.099 57.9618 202.607C58.1259 203.111 58.2079 203.683 58.2079 204.324ZM57.0887 204.863V204.312C57.0887 203.804 57.036 203.355 56.9305 202.965C56.829 202.574 56.6786 202.246 56.4794 201.98C56.2802 201.715 56.036 201.513 55.7469 201.377C55.4618 201.24 55.1376 201.172 54.7743 201.172C54.4227 201.172 54.1044 201.24 53.8192 201.377C53.538 201.513 53.2958 201.715 53.0927 201.98C52.8934 202.246 52.7391 202.574 52.6298 202.965C52.5204 203.355 52.4657 203.804 52.4657 204.312V204.863C52.4657 205.375 52.5204 205.828 52.6298 206.222C52.7391 206.613 52.8954 206.943 53.0985 207.213C53.3055 207.478 53.5497 207.679 53.8309 207.816C54.1161 207.953 54.4344 208.021 54.786 208.021C55.1532 208.021 55.4794 207.953 55.7645 207.816C56.0497 207.679 56.2899 207.478 56.4852 207.213C56.6844 206.943 56.8348 206.613 56.9364 206.222C57.038 205.828 57.0887 205.375 57.0887 204.863ZM62.8778 200.328H65.702C66.3427 200.328 66.8837 200.426 67.3251 200.621C67.7704 200.816 68.1083 201.105 68.3387 201.488C68.5731 201.867 68.6903 202.334 68.6903 202.888C68.6903 203.279 68.6102 203.636 68.4501 203.961C68.2938 204.281 68.0673 204.554 67.7704 204.781C67.4774 205.004 67.1259 205.17 66.7157 205.279L66.3993 205.402H63.745L63.7333 204.482H65.7372C66.1434 204.482 66.4813 204.412 66.7509 204.271C67.0204 204.127 67.2235 203.933 67.3602 203.691C67.4969 203.449 67.5653 203.181 67.5653 202.888C67.5653 202.56 67.5009 202.273 67.3719 202.027C67.243 201.781 67.0399 201.592 66.7626 201.459C66.4891 201.322 66.1356 201.254 65.702 201.254H64.0087V208.859H62.8778V200.328ZM67.8641 208.859L65.7899 204.992L66.9677 204.986L69.0712 208.789V208.859H67.8641ZM72.7391 208.976C72.2977 208.976 71.8973 208.902 71.538 208.754C71.1825 208.601 70.8759 208.388 70.618 208.115C70.3641 207.842 70.1688 207.517 70.0321 207.142C69.8954 206.767 69.827 206.357 69.827 205.912V205.666C69.827 205.15 69.9032 204.691 70.0555 204.289C70.2079 203.883 70.4149 203.539 70.6766 203.258C70.9384 202.976 71.2352 202.763 71.5673 202.619C71.8993 202.474 72.243 202.402 72.5985 202.402C73.0516 202.402 73.4423 202.48 73.7704 202.636C74.1024 202.793 74.3739 203.011 74.5848 203.293C74.7958 203.57 74.952 203.898 75.0536 204.277C75.1552 204.652 75.2059 205.062 75.2059 205.508V205.994H70.4716V205.109H74.1219V205.027C74.1063 204.746 74.0477 204.472 73.9462 204.207C73.8485 203.941 73.6923 203.722 73.4774 203.551C73.2626 203.379 72.9696 203.293 72.5985 203.293C72.3524 203.293 72.1259 203.345 71.9188 203.451C71.7118 203.552 71.5341 203.705 71.3856 203.908C71.2372 204.111 71.1219 204.359 71.0399 204.652C70.9579 204.945 70.9169 205.283 70.9169 205.666V205.912C70.9169 206.213 70.9579 206.496 71.0399 206.761C71.1259 207.023 71.2489 207.254 71.4091 207.453C71.5731 207.652 71.7704 207.808 72.0009 207.922C72.2352 208.035 72.5009 208.092 72.7977 208.092C73.1805 208.092 73.5048 208.013 73.7704 207.857C74.036 207.701 74.2684 207.492 74.4677 207.23L75.1239 207.752C74.9872 207.959 74.8134 208.156 74.6024 208.344C74.3915 208.531 74.1317 208.683 73.8231 208.801C73.5184 208.918 73.1571 208.976 72.7391 208.976ZM80.163 207.177C80.163 207.021 80.1278 206.877 80.0575 206.744C79.9911 206.607 79.8524 206.484 79.6415 206.375C79.4344 206.261 79.1219 206.164 78.704 206.082C78.3524 206.008 78.0341 205.92 77.7489 205.818C77.4677 205.717 77.2274 205.594 77.0282 205.449C76.8329 205.304 76.6825 205.135 76.577 204.939C76.4716 204.744 76.4188 204.515 76.4188 204.254C76.4188 204.004 76.4735 203.767 76.5829 203.545C76.6962 203.322 76.8544 203.125 77.0575 202.953C77.2645 202.781 77.5126 202.646 77.8016 202.549C78.0907 202.451 78.413 202.402 78.7684 202.402C79.2762 202.402 79.7098 202.492 80.0692 202.672C80.4286 202.851 80.704 203.092 80.8954 203.392C81.0868 203.689 81.1825 204.019 81.1825 204.383H80.0985C80.0985 204.207 80.0458 204.037 79.9403 203.873C79.8387 203.705 79.6884 203.566 79.4891 203.457C79.2938 203.347 79.0536 203.293 78.7684 203.293C78.4677 203.293 78.2235 203.34 78.036 203.433C77.8524 203.523 77.7177 203.638 77.6317 203.779C77.5497 203.92 77.5087 204.068 77.5087 204.224C77.5087 204.342 77.5282 204.447 77.5673 204.541C77.6102 204.631 77.6844 204.715 77.7899 204.793C77.8954 204.867 78.0438 204.937 78.2352 205.004C78.4266 205.07 78.6708 205.136 78.9677 205.203C79.4872 205.32 79.9149 205.461 80.2509 205.625C80.5868 205.789 80.8368 205.99 81.0009 206.228C81.1649 206.467 81.2469 206.756 81.2469 207.095C81.2469 207.373 81.1884 207.627 81.0712 207.857C80.9579 208.088 80.7919 208.287 80.5731 208.455C80.3583 208.619 80.1005 208.748 79.7997 208.842C79.5028 208.931 79.1688 208.976 78.7977 208.976C78.2391 208.976 77.7665 208.877 77.3798 208.677C76.993 208.478 76.7001 208.22 76.5009 207.904C76.3016 207.588 76.202 207.254 76.202 206.902H77.2919C77.3075 207.199 77.3934 207.435 77.5497 207.611C77.7059 207.783 77.8973 207.906 78.1239 207.98C78.3505 208.051 78.5751 208.086 78.7977 208.086C79.0946 208.086 79.3427 208.047 79.5419 207.969C79.745 207.89 79.8993 207.783 80.0048 207.646C80.1102 207.51 80.163 207.353 80.163 207.177ZM85.3016 208.976C84.8602 208.976 84.4598 208.902 84.1005 208.754C83.745 208.601 83.4384 208.388 83.1805 208.115C82.9266 207.842 82.7313 207.517 82.5946 207.142C82.4579 206.767 82.3895 206.357 82.3895 205.912V205.666C82.3895 205.15 82.4657 204.691 82.618 204.289C82.7704 203.883 82.9774 203.539 83.2391 203.258C83.5009 202.976 83.7977 202.763 84.1298 202.619C84.4618 202.474 84.8055 202.402 85.161 202.402C85.6141 202.402 86.0048 202.48 86.3329 202.636C86.6649 202.793 86.9364 203.011 87.1473 203.293C87.3583 203.57 87.5145 203.898 87.6161 204.277C87.7177 204.652 87.7684 205.062 87.7684 205.508V205.994H83.0341V205.109H86.6844V205.027C86.6688 204.746 86.6102 204.472 86.5087 204.207C86.411 203.941 86.2548 203.722 86.0399 203.551C85.8251 203.379 85.5321 203.293 85.161 203.293C84.9149 203.293 84.6884 203.345 84.4813 203.451C84.2743 203.552 84.0966 203.705 83.9481 203.908C83.7997 204.111 83.6844 204.359 83.6024 204.652C83.5204 204.945 83.4794 205.283 83.4794 205.666V205.912C83.4794 206.213 83.5204 206.496 83.6024 206.761C83.6884 207.023 83.8114 207.254 83.9716 207.453C84.1356 207.652 84.3329 207.808 84.5634 207.922C84.7977 208.035 85.0634 208.092 85.3602 208.092C85.743 208.092 86.0673 208.013 86.3329 207.857C86.5985 207.701 86.8309 207.492 87.0302 207.23L87.6864 207.752C87.5497 207.959 87.3759 208.156 87.1649 208.344C86.954 208.531 86.6942 208.683 86.3856 208.801C86.0809 208.918 85.7196 208.976 85.3016 208.976ZM90.118 203.515V208.859H89.0341V202.519H90.0887L90.118 203.515ZM92.0985 202.484L92.0927 203.492C92.0028 203.472 91.9169 203.461 91.8348 203.457C91.7567 203.449 91.6669 203.445 91.5653 203.445C91.3153 203.445 91.0946 203.484 90.9032 203.562C90.7118 203.64 90.5497 203.75 90.4169 203.89C90.2841 204.031 90.1786 204.199 90.1005 204.394C90.0262 204.586 89.9774 204.797 89.954 205.027L89.6493 205.203C89.6493 204.82 89.6864 204.461 89.7606 204.125C89.8387 203.789 89.9579 203.492 90.118 203.234C90.2782 202.972 90.4813 202.769 90.7274 202.625C90.9774 202.476 91.2743 202.402 91.618 202.402C91.6962 202.402 91.786 202.412 91.8876 202.431C91.9891 202.447 92.0594 202.465 92.0985 202.484ZM95.1337 207.881L96.868 202.519H97.9755L95.6962 208.859H94.9696L95.1337 207.881ZM93.6864 202.519L95.4735 207.91L95.5966 208.859H94.87L92.5731 202.519H93.6864ZM101.567 208.976C101.126 208.976 100.725 208.902 100.366 208.754C100.011 208.601 99.704 208.388 99.4462 208.115C99.1923 207.842 98.9969 207.517 98.8602 207.142C98.7235 206.767 98.6552 206.357 98.6552 205.912V205.666C98.6552 205.15 98.7313 204.691 98.8837 204.289C99.036 203.883 99.243 203.539 99.5048 203.258C99.7665 202.976 100.063 202.763 100.395 202.619C100.727 202.474 101.071 202.402 101.427 202.402C101.88 202.402 102.27 202.48 102.599 202.636C102.931 202.793 103.202 203.011 103.413 203.293C103.624 203.57 103.78 203.898 103.882 204.277C103.983 204.652 104.034 205.062 104.034 205.508V205.994H99.2997V205.109H102.95V205.027C102.934 204.746 102.876 204.472 102.774 204.207C102.677 203.941 102.52 203.722 102.306 203.551C102.091 203.379 101.798 203.293 101.427 203.293C101.181 203.293 100.954 203.345 100.747 203.451C100.54 203.552 100.362 203.705 100.214 203.908C100.065 204.111 99.9501 204.359 99.868 204.652C99.786 204.945 99.745 205.283 99.745 205.666V205.912C99.745 206.213 99.786 206.496 99.868 206.761C99.954 207.023 100.077 207.254 100.237 207.453C100.401 207.652 100.599 207.808 100.829 207.922C101.063 208.035 101.329 208.092 101.626 208.092C102.009 208.092 102.333 208.013 102.599 207.857C102.864 207.701 103.097 207.492 103.296 207.23L103.952 207.752C103.815 207.959 103.641 208.156 103.431 208.344C103.22 208.531 102.96 208.683 102.651 208.801C102.347 208.918 101.985 208.976 101.567 208.976Z" fill="white"/>
</svg>
